<?xml version="1.0" encoding="UTF-8" standalone="no"?>
<!-- Created with Inkscape (http://www.inkscape.org/) -->

<svg
   xmlns:dc="http://purl.org/dc/elements/1.1/"
   xmlns:cc="http://creativecommons.org/ns#"
   xmlns:rdf="http://www.w3.org/1999/02/22-rdf-syntax-ns#"
   xmlns:svg="http://www.w3.org/2000/svg"
   xmlns="http://www.w3.org/2000/svg"
   xmlns:xlink="http://www.w3.org/1999/xlink"
   xmlns:sodipodi="http://sodipodi.sourceforge.net/DTD/sodipodi-0.dtd"
   xmlns:inkscape="http://www.inkscape.org/namespaces/inkscape"
   width="256"
   height="128"
   viewBox="0 0 67.733332 33.866668"
   version="1.1"
   id="svg1089"
   inkscape:version="0.92.3 (2405546, 2018-03-11)"
   sodipodi:docname="wait01.svg"
   inkscape:export-filename="/home/quique/workspace/lliurex-homework-harvester/rsrc/wait00.png"
   inkscape:export-xdpi="96"
   inkscape:export-ydpi="96">
  <defs
     id="defs1083">
    <linearGradient
       gradientTransform="matrix(0.5,0,0,-0.48276,384.57,547.25)"
       gradientUnits="userSpaceOnUse"
       x2="0"
       y2="61.139999"
       y1="2.579"
       id="a">
      <stop
         id="stop1634"
         stop-opacity="0"
         stop-color="#ffffff" />
      <stop
         id="stop1636"
         stop-opacity=".2"
         stop-color="#ffffff"
         offset="1" />
    </linearGradient>
    <linearGradient
       gradientUnits="userSpaceOnUse"
       x2="411.57001"
       y2="531.79999"
       x1="404.57001"
       y1="524.79999"
       id="b">
      <stop
         id="stop1639"
         stop-color="#383e51" />
      <stop
         id="stop1641"
         stop-opacity="0"
         stop-color="#655c6f"
         offset="1" />
    </linearGradient>
    <path
       d="m 389.57,545.8 v -28 h 15 l 7,7 v 21 h -7 z"
       id="c"
       inkscape:connector-curvature="0" />
    <linearGradient
       id="linearGradient4172-5"
       inkscape:collect="always">
      <stop
         id="stop4174-6"
         style="stop-color:#3daee9" />
      <stop
         id="stop4176-6"
         style="stop-color:#6cc1ef"
         offset="1" />
    </linearGradient>
    <linearGradient
       x2="0"
       gradientUnits="userSpaceOnUse"
       y2="8"
       y1="29"
       xlink:href="#linearGradient4172-5"
       id="linearGradient4342"
       inkscape:collect="always" />
  </defs>
  <sodipodi:namedview
     id="base"
     pagecolor="#ffffff"
     bordercolor="#666666"
     borderopacity="1.0"
     inkscape:pageopacity="0.0"
     inkscape:pageshadow="2"
     inkscape:zoom="3.959798"
     inkscape:cx="32.003355"
     inkscape:cy="33.301615"
     inkscape:document-units="px"
     inkscape:current-layer="layer1"
     showgrid="false"
     units="px"
     inkscape:showpageshadow="false"
     inkscape:window-width="1920"
     inkscape:window-height="1019"
     inkscape:window-x="0"
     inkscape:window-y="0"
     inkscape:window-maximized="1" />
  <metadata
     id="metadata1086">
    <rdf:RDF>
      <cc:Work
         rdf:about="">
        <dc:format>image/svg+xml</dc:format>
        <dc:type
           rdf:resource="http://purl.org/dc/dcmitype/StillImage" />
        <dc:title />
      </cc:Work>
    </rdf:RDF>
  </metadata>
  <g
     inkscape:label="Capa 1"
     inkscape:groupmode="layer"
     id="layer1"
     transform="translate(0,-263.13333)">
    <g
       id="g869"
       transform="matrix(2.1221947,0,0,2.1221947,-2.5875459,-331.96258)"
       style="stroke-width:0.4712103">
      <g
         transform="matrix(0.26458333,0,0,0.26458333,-101.05297,147.68907)"
         id="g1663"
         style="stroke-width:0.4712103">
        <use
           height="100%"
           width="100%"
           y="0"
           x="0"
           style="fill:#cccccc;stroke-width:0.4712103"
           xlink:href="#c"
           id="use1647" />
        <use
           height="100%"
           width="100%"
           y="0"
           x="0"
           style="fill:url(#a);stroke-width:0.4712103"
           xlink:href="#c"
           id="use1649" />
        <g
           transform="scale(1,-1)"
           id="g1655"
           style="stroke-width:0.4712103">
          <rect
             style="opacity:0.5;fill:#ffffff;stroke-width:0.4712103"
             width="15"
             x="389.57001"
             y="-518.79999"
             height="1"
             id="rect1651" />
          <rect
             style="fill:#2e3132;fill-opacity:0.294;stroke-width:0.4712103"
             width="22"
             x="389.57001"
             y="-545.79999"
             height="1"
             id="rect1653" />
        </g>
        <g
           style="fill-rule:evenodd;stroke-width:0.4712103"
           id="g1661">
          <path
             style="opacity:0.5;fill:#ffffff;stroke-width:0.4712103"
             inkscape:connector-curvature="0"
             d="m 411.57,524.8 -7,-7 v 7 z"
             id="path1657" />
          <path
             style="opacity:0.2;fill:url(#b);stroke-width:0.4712103"
             inkscape:connector-curvature="0"
             d="m 411.57,531.8 -7,-7 h 7 z"
             id="path1659" />
        </g>
      </g>
      <g
         inkscape:label="Capa 1"
         id="layer1-3"
         transform="matrix(0.26458333,0,0,0.26458333,-77.618831,147.6896)"
         style="stroke-width:0.4712103">
        <g
           inkscape:label="Capa 1"
           id="layer1-8"
           transform="translate(-6e-6)"
           style="stroke-width:0.4712103">
          <path
             inkscape:connector-curvature="0"
             style="fill:#147eb8;fill-rule:evenodd;stroke-width:0.4712103"
             id="path4308"
             d="m 386.57144,518.798 v 7 1 h 28 v -6 h -14.00001 l -2,-2 z" />
          <path
             inkscape:connector-curvature="0"
             style="fill-opacity:0.235294;fill-rule:evenodd;stroke-width:0.4712103"
             id="path4306"
             d="m 397.57143,523.798 -1.99999,1 h -9 v 1 h 6.99999 3 z" />
          <path
             inkscape:connector-curvature="0"
             style="fill:url(#linearGradient4342);stroke-width:0.4712103"
             id="rect4294"
             d="m 13,8 -2,2 H 2 1 v 19 h 11 1 18 V 8 Z"
             transform="translate(384.57143,515.798)" />
          <path
             inkscape:connector-curvature="0"
             style="fill:#ffffff;fill-opacity:0.235294;fill-rule:evenodd;stroke-width:0.4712103"
             id="path4304"
             d="m 397.57143,523.798 -2,2 h -10 v 1 h 11 z" />
          <path
             inkscape:connector-curvature="0"
             style="fill:#ffffff;fill-opacity:0.235294;fill-rule:evenodd;stroke-width:0.4712103"
             id="path4310"
             d="m 398.57143,518.798 1,3 h 15.00001 v -1 h -14.00001 z" />
          <rect
             width="30"
             x="385.57144"
             y="543.79797"
             height="1"
             style="fill-opacity:0.235294;stroke-width:0.4712103"
             id="rect4292" />
        </g>
        <path
           inkscape:connector-curvature="0"
           style="fill:#1272a5;stroke-width:0.4712103"
           id="path4211"
           d="m 20,13 a 0.99999398,1 0 0 0 -1,1 0.99999398,1 0 0 0 1,1 0.99999398,1 0 0 0 1,-1 0.99999398,1 0 0 0 -1,-1 z m -3.5,2 A 0.5,0.5 0 0 0 16,15.5 0.5,0.5 0 0 0 16.5,16 0.5,0.5 0 0 0 17,15.5 0.5,0.5 0 0 0 16.5,15 Z m -2,1 A 0.5,0.5 0 0 0 14,16.5 0.5,0.5 0 0 0 14.5,17 0.5,0.5 0 0 0 15,16.5 0.5,0.5 0 0 0 14.5,16 Z M 12,17 a 0.99999398,1 0 0 0 -1,1 0.99999398,1 0 0 0 1,1 0.99999398,1 0 0 0 1,-1 0.99999398,1 0 0 0 -1,-1 z m 2.5,2 A 0.5,0.5 0 0 0 14,19.5 0.5,0.5 0 0 0 14.5,20 0.5,0.5 0 0 0 15,19.5 0.5,0.5 0 0 0 14.5,19 Z m 2,1 A 0.5,0.5 0 0 0 16,20.5 0.5,0.5 0 0 0 16.5,21 0.5,0.5 0 0 0 17,20.5 0.5,0.5 0 0 0 16.5,20 Z m 3.5,1 a 0.99999398,1 0 0 0 -1,1 0.99999398,1 0 0 0 1,1 0.99999398,1 0 0 0 1,-1 0.99999398,1 0 0 0 -1,-1 z"
           transform="translate(384.57143,515.798)" />
      </g>
      <g
         transform="translate(0.33640046)"
         id="g1809"
         style="stroke-width:0.4712103">
        <circle
           style="opacity:1;vector-effect:none;fill:#bdc3c7;fill-opacity:1;stroke:none;stroke-width:0.1246744;stroke-linecap:round;stroke-linejoin:bevel;stroke-miterlimit:4;stroke-dasharray:none;stroke-dashoffset:0;stroke-opacity:1;paint-order:normal"
           id="path1776"
           cx="11.126675"
           cy="288.94437"
           r="0.82682294" />
        <circle
           style="opacity:1;vector-effect:none;fill:#3daee9;fill-opacity:1;stroke:none;stroke-width:0.1246744;stroke-linecap:round;stroke-linejoin:bevel;stroke-miterlimit:4;stroke-dasharray:none;stroke-dashoffset:0;stroke-opacity:1;paint-order:normal"
           id="path1776-6"
           cx="14.583582"
           cy="288.94437"
           r="0.82682294" />
        <circle
           style="opacity:1;vector-effect:none;fill:#bdc3c7;fill-opacity:1;stroke:none;stroke-width:0.1246744;stroke-linecap:round;stroke-linejoin:bevel;stroke-miterlimit:4;stroke-dasharray:none;stroke-dashoffset:0;stroke-opacity:1;paint-order:normal"
           id="path1776-7"
           cx="18.040487"
           cy="288.94437"
           r="0.82682294" />
        <circle
           style="opacity:1;vector-effect:none;fill:#bdc3c7;fill-opacity:1;stroke:none;stroke-width:0.1246744;stroke-linecap:round;stroke-linejoin:bevel;stroke-miterlimit:4;stroke-dasharray:none;stroke-dashoffset:0;stroke-opacity:1;paint-order:normal"
           id="path1776-5"
           cx="21.497395"
           cy="288.94437"
           r="0.82682294" />
      </g>
    </g>
  </g>
</svg>
